<?xml version="1.0" standalone="no"?>
<!DOCTYPE svg PUBLIC "-//W3C//DTD SVG 20010904//EN"
 "http://www.w3.org/TR/2001/REC-SVG-20010904/DTD/svg10.dtd">
<svg version="1.0" xmlns="http://www.w3.org/2000/svg"
 width="512.000000pt" height="512.000000pt" viewBox="0 0 512.000000 512.000000"
 preserveAspectRatio="xMidYMid meet">
<metadata>
Created by potrace 1.14, written by Peter Selinger 2001-2017
</metadata>
<g transform="translate(0.000000,512.000000) scale(0.100000,-0.100000)"
fill="#000000" stroke="none">
<path d="M2315 5109 c-799 -83 -1501 -518 -1927 -1196 -494 -786 -516 -1810
-56 -2613 320 -558 819 -968 1425 -1169 276 -92 491 -126 803 -126 309 0 524
34 800 125 770 253 1377 859 1630 1628 91 278 124 491 125 802 0 309 -34 524
-125 800 -127 386 -323 706 -613 999 -398 403 -882 647 -1457 736 -126 19
-477 28 -605 14z m-345 -1098 c162 -200 416 -423 635 -557 416 -254 851 -378
1335 -378 199 0 326 12 485 44 50 10 93 16 96 12 11 -11 47 -168 63 -272 71
-454 -22 -933 -258 -1334 -242 -411 -638 -739 -1080 -895 -691 -244 -1441
-106 -2007 367 -480 403 -760 1041 -724 1655 l7 123 121 61 c489 248 882 644
1134 1142 40 80 73 152 73 160 1 18 3 15 120 -128z"/>
<path d="M1687 2606 c-131 -47 -211 -163 -211 -306 0 -61 5 -85 27 -132 70
-145 240 -216 394 -164 66 22 145 92 181 160 23 44 27 63 27 141 0 78 -4 97
-27 140 -58 110 -164 175 -283 174 -38 0 -87 -6 -108 -13z"/>
<path d="M3200 2595 c-68 -33 -124 -85 -158 -150 -23 -43 -27 -62 -27 -140 0
-78 4 -97 27 -141 135 -256 506 -226 589 48 26 86 20 152 -22 237 -55 111
-138 163 -269 168 -75 4 -91 1 -140 -22z"/>
</g>
</svg>
